<svg  height="60%" version="1.1" viewBox="0 0 60 90" xmlns="http://www.w3.org/2000/svg">
 <g transform="translate(-39.946 -116.12)">
  <g id="pants" transform="translate(-24.812 6.6734)">
   <rect x="99.212" y="186.5" width="3.1134" height="3.7407" style="fill:#deaa87"/>
   <rect x="92.275" y="186.63" width="3.1134" height="4.213" style="fill:#deaa87"/>
   <path d="m89.177 165.83-0.33853-6.0291 13.799-0.77481 0.33854 6.0291m-6.6315 0.15557-0.58065 22.499c-1.2747 0.10854-2.5495 0.21707-3.8242 0.32555-0.87265-7.0976-1.8901-15.107-2.7627-22.205m13.799-0.77482-0.45606 21.988c-1.2748 0.10853-2.5495 0.21707-3.8242 0.32554-0.87265-7.0976-1.4785-15.061-2.3512-22.158" style="fill:#3771c8"/>
  </g>
  <path id="right-hand" d="m93.914 158.74c2.7162-2.3404 4.5924-4e-3 2.1676 0.77998-0.44763 0.14478-1.0829 0.28128-1.2772 0.54906-0.39052 0.53812 2.2492 1.2631 3.0503 1.7484 0.43106 0.17828 0.84707 0.81518 0.58213 1.1555-0.8526 1.0952-3.4137-1.351-4.0644-0.90408-0.20943 0.3486 2.4645 1.5465 2.7692 2.8309 0.0554 0.23358 3e-3 0.59504-0.2187 0.68616-0.55683 0.22842-1.2268-0.53342-1.5985-0.83959-3.2292-2.9054-0.96806-0.76515-0.99613 0.90127 0.12064 0.29604-0.25991 0.83603-0.60069 0.46507-0.48199-0.3816-0.83063-1.7176-0.9979-2.3218-4.3203-0.45404-2.3317-6.2079-9e-3 -5.5629 0.81063 0.24872 0.56817 0.25169 1.193 0.5121" style="fill:#deaa87"/>
  <path id="left-shoe" d="m72.01 198.08c0.31532 2.9068-3.1866 4.4237-5.6151 4.6137-2.1976 0.54546-5.5862-1.4756-3.8509-3.9149 1.7405-2.3397 5.1674-3.2736 7.8912-2.2998 0.7068 0.29068 1.374 0.83441 1.5749 1.601z" style="fill:#501616;paint-order:normal"/>
  <path id="right-shoe" d="m81.604 202.99c1.7264-2.3596-0.54788-5.4243-2.556-6.8031-1.6305-1.5712-5.5756-1.5152-5.2924 1.4649 0.33744 2.8965 2.8383 5.4188 5.684 5.9373 0.75744 0.10167 1.6071-0.0356 2.1644-0.5991z" style="fill:#501616;paint-order:normal"/>
  <g id="face" transform="translate(-24.812 6.6734)">
   <path d="m90.945 134.06c-3.1502-1.7204-5.3205-5.0643-5.7659-8.8839-0.24806-2.1269 0.22118-4.8594 1.1741-6.8372 2.442-5.0683 7.9978-7.5744 12.905-5.8211 4.8743 1.7414 7.79 6.8922 7.098 12.539-0.47332 3.8624-3.001 7.508-6.3067 9.0959-2.9359 1.4103-6.4176 1.3749-9.1046-0.0926z" style="fill:#deaa87"/>
   <g transform="matrix(1.651 0 0 1.6577 -102.5 -94.361)">
    <path d="m122.69 130.86a1.1809 1.3648 0 0 1-1.1895 1.3515 1.1809 1.3648 0 0 1-1.1723-1.3714 1.1809 1.3648 0 0 1 1.1838-1.3582 1.1809 1.3648 0 0 1 1.178 1.3648" style="fill:#fff"/>
    <g transform="translate(-.056337 1.5877)">
     <path d="m122.03 129.39a0.38557 0.55004 0 0 1-0.38837 0.54467 0.38557 0.55004 0 0 1-0.38275-0.5527 0.38557 0.55004 0 0 1 0.3865-0.54736 0.38557 0.55004 0 0 1 0.38464 0.55004" style="fill:#784421"/>
     <path d="m121.83 129.45a0.28548 0.3756 0 0 1-0.28755 0.37193 0.28548 0.3756 0 0 1-0.28339-0.37741 0.28548 0.3756 0 0 1 0.28617-0.37377 0.28548 0.3756 0 0 1 0.28479 0.37559"/>
     <path d="m121.86 129.26a0.11104 0.1158 0 0 1-0.11185 0.11467 0.11104 0.1158 0 0 1-0.11023-0.11636 0.11104 0.1158 0 0 1 0.11131-0.11524 0.11104 0.1158 0 0 1 0.11077 0.1158" style="fill:#fff"/>
    </g>
   </g>
   <g transform="matrix(1.651 0 0 1.6577 -107.89 -94.22)">
    <path d="m122.69 130.86a1.1809 1.3648 0 0 1-1.1895 1.3515 1.1809 1.3648 0 0 1-1.1723-1.3714 1.1809 1.3648 0 0 1 1.1838-1.3582 1.1809 1.3648 0 0 1 1.178 1.3648" style="fill:#fff"/>
    <g transform="translate(-.056337 1.5877)">
     <path d="m122.03 129.39a0.38557 0.55004 0 0 1-0.38837 0.54467 0.38557 0.55004 0 0 1-0.38275-0.5527 0.38557 0.55004 0 0 1 0.3865-0.54736 0.38557 0.55004 0 0 1 0.38464 0.55004" style="fill:#784421"/>
     <path d="m121.83 129.45a0.28548 0.3756 0 0 1-0.28755 0.37193 0.28548 0.3756 0 0 1-0.28339-0.37741 0.28548 0.3756 0 0 1 0.28617-0.37377 0.28548 0.3756 0 0 1 0.28479 0.37559"/>
     <path d="m121.86 129.26a0.11104 0.1158 0 0 1-0.11185 0.11467 0.11104 0.1158 0 0 1-0.11023-0.11636 0.11104 0.1158 0 0 1 0.11131-0.11524 0.11104 0.1158 0 0 1 0.11077 0.1158" style="fill:#fff"/>
    </g>
   </g>
   <path d="m98.773 128.69c-0.01571 1.152-1.3302 2.0798-2.946 2.0794-1.6157-4.4e-4 -2.959-0.80478-2.9735-1.9568z" style="fill:#fff;stroke-linecap:round;stroke-linejoin:round;stroke-width:.3212;stroke:#861616"/>
   <path d="m95.429 124.88c0.20972 0.48196 0.50899 0.92478 0.87798 1.2991 0.0907 0.092 0.18667 0.1813 0.25365 0.29179 0.03349 0.0553 0.05936 0.11561 0.07128 0.1791 0.01192 0.0635 0.0095 0.13026-0.01178 0.19126-0.02147 0.0615-0.06164 0.11573-0.11126 0.15798-0.04962 0.0422-0.10846 0.0729-0.1701 0.094-0.12328 0.0423-0.25575 0.0471-0.38595 0.0533-0.35949 0.017-0.71834 0.0474-1.0756 0.0911" style="fill:none;stroke-width:.15875;stroke:#3a1616"/>
   <path d="m93.523 119.19c-0.64906-0.19889-1.3576-0.19889-2.0067 0-0.28695 0.0879-0.56192 0.2136-0.81936 0.36785-0.22815 0.1367-0.4428 0.29591-0.63982 0.47457" style="fill:#deaa87;stroke-linecap:round;stroke-width:.52917;stroke:#3a1616"/>
   <path d="m97.265 119.14c0.64906-0.19889 1.3576-0.19889 2.0067 0 0.28695 0.0879 0.56192 0.2136 0.81936 0.36785 0.22815 0.1367 0.4428 0.29591 0.63982 0.47457" style="fill:#deaa87;stroke-linecap:round;stroke-width:.52917;stroke:#3a1616"/>
  </g>
  <path id="hair" d="m73.93 116.12c-0.91342 0.02-1.888 0.23137-2.9259 0.67748-9.0576-1.3196-14.593 5.0464-12.677 14.283 0.45356 4.2845 1.8036 8.3876 2.605 12.601 0.59704 3.1391 0.18961 9.7111 1.6412 9.4444 1.5279-0.66295 2.3914-3.6946 3.9654-4.2486 3.7247-1.311 4.6367-1.999 8.0218-0.12893 6.0886 7.4246 4.6471 0.31021 5.5828-5.4638 1.7005-5.4741 4.869-11.246 3.5652-17.633-1.6975-4.1715-4.8457-9.6398-9.7782-9.5317zm-4.238 5.3036c1.2948 2.4315 4.1619 3.5033 6.8037 3.3052 6.0428-0.43077 4.235 4.7815 4.2447 8.9679 0.0543 2.4105-1.8517 4.376-4.0669 5.0183-12.376 2.9742-16.128-0.89023-15.785-11.471 0.0407-1.9114 1.3315-3.6136 3.1459-3.5727 2.0817-0.0328 4.2985-0.53095 5.658-2.2474z" style="fill:#51381c"/>
  <path id="neck" d="m74.472 144.18c-0.01997 1.1135-1.6977 2.0082-3.7507 2.0001-2.0529-8e-3 -3.7065-0.91598-3.6965-2.0295 0.01-1.1136 1.6797-2.0126 3.7327-2.0099 2.053 3e-3 3.7146 0.90619 3.7146 2.0198m-5.536-1.7528 0.0032-3.1177h3.1059l-0.0086 2.9783" style="fill:#deaa87"/>
  <g id="arm-animate" transform="rotate(-2,66.5,144)">
   <path id="hand" d="m44.118 150.5c-2.7457-2.3058-4.592 0.0542-2.1576 0.80737 0.44942 0.1391 1.0864 0.26754 1.2841 0.53284 0.3973 0.53313-2.2331 1.2915-3.0279 1.7868-0.42877 0.18372-0.83667 0.82584-0.56746 1.1628 0.8664 1.0843 3.3963-1.3941 4.0527-0.95548 0.21382 0.34592-2.4447 1.5776-2.7331 2.8658-0.05244 0.23426 0.0041 0.59504 0.22736 0.68333 0.5597 0.22135 1.2199-0.54891 1.5877-0.85976 3.1922-2.9461 0.95829-0.77735 1.0075 0.88858-0.11687 0.29754 0.27049 0.83267 0.60654 0.45742 0.47712-0.38767 0.8088-1.728 0.96841-2.3342 4.3142-0.50872 2.2529-6.2369-0.06184-5.5626-0.80741 0.25897-0.56494 0.25886-1.1864 0.52717" style="fill:#deaa87"/>
   <path id="sleave" d="m47.251 150.1c0.15346 1.0307 0.33612 2.0814 0.85834 2.9993 1.0707 0.085 2.0928-0.39925 3.1039-0.69072 3.6177-1.2123 7.1148-2.8066 10.828-3.7201 0.84572-0.28435 1.6989-0.0164 2.5538-0.13724 1.7411-0.11281 3.4357-0.55152 5.1593-0.79164 0.28741-0.86341-0.33335-1.3-0.85356-2.0727-0.69039-0.96912-1.5793-1.7786-1.9198-2.5767-0.98611-0.11931-2.3225 0.8665-3.251 1.1546-4.2879 2.0913-8.7951 3.6968-13.388 4.9722-1.0284 0.29431-2.059 0.58042-3.0907 0.86297z" style="fill:#40a"/>
  </g>
  <path id="shirt" transform="scale(.26458)" d="m279.51 538.57c-6.2463 12.127-16.884 13.883-26.354 2.3066l-9.0176 20.564c-5.0372 50.545-6.7933 45.838-9.1816 70.061 20.799 0.70009 42.929 1.1434 64.803-0.79297-1.1402-6.5654-6.3613-18.05-11.264-69.367 4.6214-4.3671 42.081 41.607 51.963 45.842 1.2531 0.38669 1.6239-1.3266 4.127-5.2539 4.138-6.911-53.01-58.899-65.076-63.359z" style="fill:#40a"/>
 </g>
</svg>
